<?xml version="1.0" encoding="UTF-8" standalone="no"?>
<!DOCTYPE svg PUBLIC "-//W3C//DTD SVG 1.1//EN" "http://www.w3.org/Graphics/SVG/1.1/DTD/svg11.dtd">
<svg width="100%" height="100%" viewBox="0 0 505 547" version="1.1" xmlns="http://www.w3.org/2000/svg" xmlns:xlink="http://www.w3.org/1999/xlink" xml:space="preserve" xmlns:serif="http://www.serif.com/" style="fill-rule:evenodd;clip-rule:evenodd;stroke-linejoin:round;stroke-miterlimit:2;">
    <g id="g1" transform="matrix(2.83465,0,0,2.83465,-42.432,-147.12)">
        <g id="Layer-1" serif:id="Layer 1">
            <g id="g11" serif:id="g1">
                <g id="path3">
                    <path d="M100.358,244.102L99.616,243.464L99.483,238.479L99.351,233.495L98.16,233.425C94.896,233.234 94.943,233.375 95.04,223.965L95.118,216.439L95.935,215.622C96.384,215.173 97.218,214.694 97.787,214.557C98.356,214.421 101.33,214.33 104.396,214.356C107.461,214.382 110.111,214.317 110.283,214.21C110.517,214.066 110.596,210.901 110.596,201.717L110.596,189.418L111.245,188.768C112.112,187.901 113.483,187.896 114.484,188.757L115.226,189.395L115.302,201.776C115.344,208.585 115.434,214.211 115.501,214.279C115.569,214.346 117.782,214.374 120.421,214.34C127.104,214.254 128.427,214.423 129.622,215.518L130.572,216.388L130.572,224.337C130.572,233.519 130.677,233.132 128.118,233.36L126.603,233.495L126.338,243.464L124.854,244.74L101.1,244.74L100.358,244.102ZM109.141,236.67L109.141,233.495L104.378,233.495L104.303,236.367C104.252,238.299 104.33,239.363 104.542,239.618C104.778,239.903 105.39,239.978 106.999,239.921L109.141,239.845L109.141,236.67ZM121.576,236.67L121.576,233.495L116.814,233.495L116.738,236.388C116.696,237.98 116.724,239.443 116.8,239.64C116.904,239.912 117.496,239.979 119.257,239.921L121.576,239.845L121.576,236.67ZM125.545,224.631L125.545,222.118L100.145,222.118L100.066,224.099C100.022,225.189 100.055,226.351 100.138,226.681L100.288,227.282L125.545,227.145L125.545,224.631ZM157.489,204.249C156.78,203.964 156.277,202.806 156.492,201.951C156.576,201.616 158.232,199.706 160.172,197.707C162.112,195.708 163.828,193.827 163.985,193.528C164.167,193.18 164.293,189.929 164.334,184.492L164.397,176L163.307,174.762C162.39,173.719 161.736,172.441 161.242,170.72C161.166,170.457 158.252,170.401 147.314,170.455L133.482,170.524L133.334,177.319L135.525,179.57C136.73,180.808 139.102,183.121 140.797,184.709L143.877,187.597L146.221,187.676C148.037,187.737 148.858,187.897 149.873,188.387C153.84,190.305 155.729,195.215 154.005,199.127C153.258,200.82 151.334,202.754 149.646,203.508C147.61,204.418 144.822,204.367 142.821,203.385C138.499,201.262 136.825,196.071 139.14,191.969C140.066,190.329 140.021,190.004 138.714,188.853C138.31,188.497 135.926,186.125 133.416,183.581L128.852,178.956L128.852,174.991C128.852,172.261 128.753,170.928 128.535,170.709C128.318,170.492 126.998,170.389 124.367,170.382C121.852,170.376 120.321,170.262 119.95,170.052C119.245,169.653 117.669,168.157 113.837,164.248L110.861,161.212L110.861,126.974C110.862,92.878 110.864,92.733 111.407,91.843C111.707,91.352 113.137,89.732 114.585,88.243L117.218,85.537L117.078,69.496L115.644,68.755C113.755,67.779 112.587,66.612 111.714,64.828C110.756,62.872 110.713,59.816 111.613,57.811C112.389,56.086 114.305,54.158 115.996,53.401C117.905,52.546 121.028,52.552 122.956,53.415C124.593,54.147 126.538,56.128 127.347,57.886C128.23,59.803 128.159,62.88 127.187,64.867C126.363,66.552 124.894,68.007 123.173,68.843C122.516,69.162 121.948,69.647 121.864,69.959C121.782,70.263 121.714,74.369 121.712,79.085L121.708,87.658L118.83,90.594C117.247,92.209 115.818,93.79 115.655,94.108C115.44,94.526 115.358,103.666 115.358,127.176L115.358,159.666L118.508,162.78L121.658,165.894L162.247,165.894L163.674,164.59C166.122,162.353 168.855,162.165 171.59,164.047C174.166,165.82 174.989,169.867 173.403,172.967C172.689,174.365 172.257,174.794 169.707,176.638L168.936,177.195L168.804,185.766C168.661,195.04 168.695,194.821 167.093,196.585C164.593,199.338 159.027,204.521 158.587,204.506C158.313,204.497 157.819,204.381 157.489,204.249L157.489,204.249ZM148.067,199.215C148.885,198.82 149.343,198.362 149.738,197.544C150.42,196.137 150.419,195.71 149.735,194.298C148.72,192.201 146.228,191.443 144.289,192.642C141.841,194.155 142.095,197.972 144.732,199.297C145.932,199.9 146.692,199.881 148.067,199.215L148.067,199.215ZM169.43,171.282C170.187,170.524 170.338,169.43 169.819,168.456C169.346,167.567 168.765,167.234 167.668,167.225C166.262,167.213 165.365,168.138 165.365,169.598C165.365,171.809 167.866,172.845 169.43,171.282ZM121.771,64.408C122.818,63.629 123.398,62.456 123.398,61.119C123.398,59.609 122.717,58.426 121.432,57.704C118.744,56.194 115.623,58.101 115.623,61.254C115.623,62.789 116.161,63.708 117.584,64.603C118.619,65.254 120.768,65.154 121.771,64.408ZM181.636,159.041C179.468,158.484 177.768,157.113 176.765,155.112L176.202,153.988L133.165,153.988L132.133,153.222C131.002,152.383 125.308,146.64 124.395,145.419L123.825,144.656L123.834,122.4C123.841,104.872 123.915,100.016 124.181,99.537C124.366,99.203 129.761,93.666 136.17,87.234C142.579,80.801 147.94,75.319 148.085,75.05C148.28,74.687 148.183,74.151 147.708,72.976C145.976,68.686 147.729,64 151.817,61.992C153.11,61.357 153.647,61.251 155.575,61.251C157.502,61.251 158.039,61.357 159.332,61.992C164.116,64.341 165.659,70.42 162.557,74.692C161.53,76.107 159.705,77.387 158.092,77.823C156.999,78.119 153.709,78.008 152.832,77.647C152.426,77.479 150.197,79.589 140.33,89.475L128.323,101.507L128.323,143.317L131.48,146.408L134.637,149.498L148.828,149.357L148.96,140.349C149.076,132.47 149.149,131.256 149.541,130.657C150.278,129.533 157.493,122.464 158.164,122.209C158.505,122.079 162.703,121.973 167.494,121.973L176.203,121.973L176.878,120.641C177.806,118.809 179.233,117.302 180.826,116.469C181.964,115.873 182.503,115.767 184.414,115.762C186.294,115.757 186.905,115.868 188.136,116.446C189.889,117.268 191.358,118.704 192.3,120.518C192.878,121.63 192.99,122.199 193,124.09C193.011,125.975 192.902,126.574 192.328,127.794C191.465,129.624 189.991,131.095 188.118,131.992C186.894,132.578 186.307,132.688 184.414,132.682C182.505,132.677 181.964,132.57 180.832,131.978C179.263,131.158 177.464,129.298 176.874,127.887C176.644,127.337 176.312,126.795 176.136,126.683C175.959,126.571 172.249,126.477 167.889,126.475L159.964,126.471L153.458,132.977L153.458,140.815C153.458,145.125 153.53,148.841 153.619,149.071C153.762,149.444 155.01,149.49 164.971,149.49L176.162,149.49L176.825,148.365C178.251,145.946 180.42,144.689 183.174,144.685C185.123,144.682 186.419,145.182 187.879,146.501C190.002,148.419 190.767,151.455 189.835,154.261C188.759,157.5 184.745,159.84 181.636,159.041L181.636,159.041ZM185.136,153.848C186.001,152.983 186.059,152.824 185.929,151.674C185.633,149.048 182.911,148.03 181.081,149.86C180.343,150.597 180.181,150.96 180.181,151.871C180.181,152.782 180.343,153.144 181.081,153.882C181.818,154.619 182.181,154.781 183.092,154.781C184.011,154.781 184.364,154.62 185.136,153.848ZM186.564,127.777C188.531,126.774 189.232,123.774 187.915,121.996C185.986,119.391 182.322,119.588 180.975,122.37C180.333,123.696 180.31,124.533 180.877,125.95C181.749,128.131 184.279,128.943 186.564,127.777ZM157.945,72.861C159.056,71.927 159.544,70.902 159.544,69.505C159.544,67.141 157.637,65.503 155.103,65.691C152.163,65.908 150.575,68.917 151.971,71.627C152.971,73.568 156.291,74.254 157.945,72.861ZM137.597,134.349C136.295,133.652 135.202,131.965 135.202,130.654C135.202,129.606 135.793,128.315 136.623,127.549L137.319,126.908L137.328,118.553C137.335,112.249 137.421,110.048 137.678,109.585C138.084,108.853 154.15,92.695 154.913,92.251C155.231,92.066 157.242,91.89 159.939,91.81L164.436,91.678L165.166,90.231C166.821,86.952 169.362,85.346 172.91,85.335C174.787,85.329 175.239,85.43 176.819,86.208C183.168,89.333 183.016,98.569 176.566,101.521C175.772,101.885 174.432,102.245 173.587,102.321C170.165,102.632 166.553,100.437 165.215,97.234L164.828,96.308L157.026,96.308L149.411,103.928L141.795,111.547L141.684,126.961L142.379,127.708C143.386,128.79 143.668,129.463 143.668,130.78C143.668,133.845 140.326,135.81 137.597,134.349L137.597,134.349ZM174.88,97.301C178.619,95.383 177.117,89.69 172.874,89.695C169.972,89.699 168.028,92.651 169.167,95.325C170.143,97.615 172.605,98.467 174.88,97.301Z" style="fill:rgb(35,115,171);fill-rule:nonzero;"/>
                    <path d="M123.938,70.839C123.907,72.154 123.83,75.757 123.829,79.086L123.825,87.659C123.824,88.213 123.607,88.745 123.22,89.14L120.342,92.076C119.322,93.116 118.166,94.412 117.684,94.958C117.53,97.451 117.475,106.984 117.475,127.176L117.475,158.782L119.996,161.275L122.527,163.777L141.953,163.777L161.426,163.777L162.246,163.027C163.871,161.542 165.612,160.783 167.38,160.662C169.146,160.541 170.975,161.055 172.79,162.303C176.155,164.619 177.359,169.88 175.288,173.931C174.446,175.577 173.989,176.148 171.036,178.288L170.92,185.798C170.758,196.312 170.476,196.008 168.66,198.008C166.313,200.593 161.361,205.218 160.061,206.108L159.22,206.531L158.516,206.622C158.062,206.606 157.244,206.431 156.7,206.213L156.098,205.892L155.62,205.503L155.082,204.854C154.938,204.639 154.81,204.404 154.702,204.156C154.467,203.615 154.339,203.015 154.33,202.433C153.221,203.718 151.809,204.86 150.509,205.441C147.937,206.59 144.415,206.526 141.888,205.285C136.457,202.618 134.387,196.084 137.297,190.929C137.357,190.822 137.42,190.702 137.477,190.589C137.422,190.538 137.367,190.487 137.315,190.441C136.903,190.079 134.47,187.662 131.91,185.068L127.346,180.443C126.955,180.047 126.736,179.513 126.736,178.956L126.736,174.991C126.736,174.059 126.703,173.201 126.67,172.568C126.059,172.534 125.241,172.501 124.362,172.499C122.463,172.494 121.084,172.424 120.29,172.309C119.983,172.265 119.735,172.211 119.546,172.157L118.908,171.894C118.154,171.467 116.426,169.912 112.326,165.73L109.349,162.694C108.961,162.299 108.744,161.767 108.744,161.212L108.745,126.974C108.746,102.995 108.752,95.729 108.939,93.222C109.07,91.481 109.335,91.175 109.6,90.741C109.929,90.201 111.477,88.402 113.068,86.767L115.094,84.684L115.032,77.535L114.973,70.791L114.672,70.636C112.332,69.426 110.895,67.97 109.813,65.758C108.61,63.301 108.551,59.461 109.683,56.944C110.646,54.801 113.03,52.409 115.131,51.469C117.514,50.402 121.413,50.406 123.82,51.483C125.846,52.389 128.268,54.825 129.27,57.001C130.382,59.417 130.313,63.294 129.089,65.797C128.063,67.894 126.239,69.707 124.098,70.747C124.05,70.771 123.994,70.804 123.938,70.839ZM157.489,204.249C157.819,204.381 158.313,204.497 158.587,204.506C159.027,204.521 164.593,199.338 167.093,196.585C168.695,194.821 168.661,195.04 168.804,185.766L168.936,177.195L169.707,176.638C172.257,174.794 172.689,174.365 173.403,172.967C174.989,169.867 174.166,165.82 171.59,164.047C168.855,162.165 166.122,162.353 163.674,164.59L162.247,165.894L121.658,165.894L118.508,162.78L115.358,159.666L115.358,127.176C115.358,103.666 115.44,94.526 115.655,94.108C115.818,93.79 117.247,92.209 118.83,90.594L121.708,87.658L121.712,79.085C121.714,74.369 121.782,70.263 121.864,69.959C121.948,69.647 122.516,69.162 123.173,68.843C124.894,68.007 126.363,66.552 127.187,64.867C128.159,62.88 128.23,59.803 127.347,57.886C126.538,56.128 124.593,54.147 122.956,53.415C121.028,52.552 117.905,52.546 115.996,53.401C114.305,54.158 112.389,56.086 111.613,57.811C110.713,59.816 110.756,62.872 111.714,64.828C112.587,66.612 113.755,67.779 115.644,68.755L117.078,69.496L117.218,85.537L114.585,88.243C113.137,89.732 111.707,91.352 111.407,91.843C110.864,92.733 110.862,92.878 110.862,126.974L110.861,161.212L113.837,164.248C117.669,168.157 119.245,169.653 119.95,170.052C120.321,170.262 121.852,170.376 124.367,170.382C126.998,170.389 128.318,170.492 128.535,170.709C128.753,170.928 128.852,172.261 128.852,174.991L128.852,178.956L133.416,183.581C135.926,186.125 138.31,188.497 138.714,188.853C140.021,190.004 140.066,190.329 139.14,191.969C136.825,196.071 138.499,201.262 142.821,203.385C144.822,204.367 147.61,204.418 149.646,203.508C151.334,202.754 153.258,200.82 154.005,199.127C155.729,195.215 153.84,190.305 149.873,188.387C148.858,187.897 148.037,187.737 146.221,187.676L143.877,187.597L140.797,184.709C139.102,183.121 136.73,180.808 135.525,179.57L133.334,177.319L133.482,170.524L147.314,170.455C158.252,170.401 161.166,170.457 161.242,170.72C161.736,172.441 162.39,173.719 163.307,174.762L164.397,176L164.334,184.492C164.293,189.929 164.167,193.18 163.985,193.528C163.828,193.827 162.112,195.708 160.172,197.707C158.232,199.706 156.576,201.616 156.492,201.951C156.277,202.806 156.78,203.964 157.489,204.249ZM169.43,171.282C167.866,172.845 165.365,171.809 165.365,169.598C165.365,168.138 166.262,167.213 167.668,167.225C168.765,167.234 169.346,167.567 169.819,168.456C170.338,169.43 170.187,170.524 169.43,171.282ZM167.515,169.355C167.502,169.414 167.481,169.522 167.481,169.598C167.481,169.735 167.519,169.858 167.621,169.9C167.722,169.942 167.836,169.882 167.933,169.785C168.022,169.696 168.012,169.565 167.951,169.451C167.937,169.424 167.916,169.39 167.897,169.36C167.828,169.353 167.726,169.342 167.65,169.342C167.61,169.341 167.554,169.349 167.515,169.355ZM148.01,199.243C147.939,198.163 147.784,197.088 147.445,197.192C147.357,197.219 147.276,197.249 147.201,197.282C147.503,197.125 147.679,196.94 147.833,196.622C147.986,196.306 148.165,196.163 148.134,195.952C148.103,195.745 147.981,195.532 147.83,195.22C147.375,194.281 146.27,193.906 145.402,194.443C144.309,195.118 144.506,196.814 145.682,197.406C146.186,197.659 146.511,197.608 147.067,197.347C147.024,197.37 146.984,197.395 146.946,197.42C146.181,197.929 146.406,198.849 146.849,199.668C146.131,199.823 145.529,199.697 144.732,199.297C142.095,197.972 141.841,194.155 144.289,192.642C146.228,191.443 148.72,192.201 149.735,194.298C150.419,195.71 150.42,196.137 149.738,197.544C149.343,198.362 148.885,198.82 148.067,199.215C148.048,199.225 148.029,199.234 148.01,199.243ZM147.201,197.282L147.145,197.31L147.067,197.347C147.109,197.325 147.154,197.303 147.201,197.282ZM121.771,64.408C120.768,65.154 118.619,65.254 117.584,64.603C116.161,63.708 115.623,62.789 115.623,61.254C115.623,58.101 118.744,56.194 121.432,57.704C122.717,58.426 123.398,59.609 123.398,61.119C123.398,62.456 122.818,63.629 121.771,64.408ZM120.507,62.71C121.012,62.334 121.281,61.764 121.281,61.119C121.281,60.428 120.982,59.88 120.394,59.549C119.149,58.849 117.74,59.793 117.74,61.254C117.74,61.98 118.038,62.388 118.711,62.811C118.925,62.946 119.265,62.93 119.591,62.915C119.933,62.899 120.29,62.872 120.507,62.71ZM156.415,198.639C157.053,197.92 157.828,197.084 158.653,196.233C159.967,194.879 161.42,193.265 161.974,192.645C162.027,191.656 162.188,188.378 162.217,184.476L162.275,176.792L161.718,176.16C160.861,175.186 160.181,174.048 159.641,172.617C157.922,172.539 154.281,172.538 147.325,172.572L135.553,172.63L135.524,173.968L135.469,176.478L137.042,178.094C138.231,179.315 140.572,181.597 142.244,183.165L144.744,185.508L146.292,185.56C148.535,185.636 149.54,185.876 150.794,186.482C155.33,188.674 157.669,193.996 156.415,198.639ZM145.932,74.28C145.878,74.12 145.813,73.935 145.746,73.769C143.587,68.424 145.791,62.593 150.884,60.092C152.5,59.298 153.165,59.134 155.575,59.134C157.984,59.134 158.649,59.298 160.265,60.092C166.231,63.021 168.139,70.608 164.27,75.936C162.978,77.716 160.674,79.318 158.645,79.867C157.593,80.151 154.927,80.113 153.236,79.876C152.167,80.865 148.313,84.473 141.829,90.97L130.439,102.383L130.439,122.412L130.439,142.427L132.96,144.895L135.492,147.373L141.711,147.311L146.742,147.261L146.844,140.318C146.927,134.62 147.004,132.296 147.172,131.203C147.311,130.302 147.537,129.853 147.771,129.496C148.391,128.55 153.343,123.576 155.671,121.498C156.529,120.732 157.204,120.309 157.412,120.23C157.546,120.179 157.975,120.068 158.664,120.022C160.09,119.927 163.599,119.856 167.494,119.856L174.903,119.856L174.99,119.684C176.127,117.441 177.894,115.613 179.845,114.593C181.296,113.834 181.973,113.652 184.408,113.645C186.749,113.639 187.502,113.811 189.035,114.53C191.196,115.543 193.016,117.306 194.178,119.542C194.914,120.957 195.104,121.672 195.117,124.078C195.13,126.432 194.96,127.172 194.242,128.696C193.174,130.963 191.352,132.79 189.033,133.9C187.501,134.634 186.775,134.806 184.408,134.799C181.975,134.792 181.294,134.609 179.851,133.854C177.893,132.83 175.675,130.487 174.929,128.722C173.572,128.677 170.667,128.593 167.888,128.592L160.84,128.588L158.207,131.22L155.575,133.853L155.575,140.815C155.575,143.212 155.625,145.736 155.662,147.265C157.144,147.31 160.097,147.373 164.971,147.373L174.953,147.373L175.002,147.29C176.835,144.18 179.63,142.574 183.171,142.568C185.708,142.564 187.397,143.213 189.298,144.93C192.035,147.403 193.046,151.31 191.844,154.928C191.149,157.019 189.535,158.845 187.564,159.994C185.541,161.173 183.17,161.62 181.11,161.091C178.349,160.382 176.182,158.642 174.895,156.104L133.165,156.104C132.711,156.104 132.268,155.958 131.904,155.687L130.872,154.922C129.678,154.036 123.663,147.975 122.7,146.686L122.129,145.923C121.856,145.557 121.708,145.112 121.708,144.655L121.717,122.399C121.723,108.276 121.776,102.32 121.933,100.256C121.972,99.74 122.026,99.396 122.074,99.188L122.33,98.51C122.386,98.41 122.713,97.967 123.339,97.299C125.027,95.498 129.523,90.907 134.671,85.74C139.867,80.524 144.372,75.938 145.932,74.28ZM181.636,161.157C181.636,161.157 181.76,161.165 181.975,161.13C181.865,161.148 181.751,161.157 181.636,161.157ZM180.242,158.541C180.502,159.739 181.636,161.157 181.636,161.157C181.636,161.157 181.722,160.112 181.727,159.063C184.823,159.794 188.77,157.468 189.835,154.261C190.767,151.455 190.002,148.419 187.879,146.501C186.419,145.182 185.123,144.682 183.174,144.685C180.42,144.689 178.251,145.946 176.825,148.365L176.162,149.49L164.971,149.49C155.01,149.49 153.762,149.444 153.619,149.071C153.53,148.841 153.458,145.125 153.458,140.815L153.458,132.977L159.964,126.471L167.889,126.475C172.249,126.477 175.959,126.571 176.136,126.683C176.312,126.795 176.644,127.337 176.874,127.887C177.464,129.298 179.263,131.158 180.832,131.978C181.964,132.57 182.505,132.677 184.414,132.682C186.307,132.688 186.894,132.578 188.118,131.992C189.991,131.095 191.465,129.624 192.328,127.794C192.902,126.574 193.011,125.975 193,124.09C192.99,122.199 192.878,121.63 192.3,120.518C191.358,118.704 189.889,117.268 188.136,116.446C186.905,115.868 186.294,115.757 184.414,115.762C182.503,115.767 181.964,115.873 180.826,116.469C179.233,117.302 177.806,118.809 176.878,120.641L176.203,121.973L167.494,121.973C162.703,121.973 158.505,122.079 158.164,122.209C157.493,122.464 150.278,129.533 149.541,130.657C149.149,131.255 149.076,132.47 148.96,140.349L148.828,149.357L134.637,149.498L131.48,146.408L128.323,143.317L128.323,101.507L140.33,89.475C150.197,79.589 152.426,77.479 152.832,77.647C153.709,78.008 156.999,78.119 158.092,77.823C159.705,77.387 161.53,76.107 162.557,74.692C165.659,70.42 164.116,64.341 159.332,61.992C158.039,61.357 157.502,61.251 155.575,61.251C153.647,61.251 153.11,61.357 151.817,61.992C147.729,64 145.976,68.686 147.708,72.976C148.183,74.151 148.28,74.687 148.085,75.05C147.94,75.319 142.579,80.801 136.17,87.234C129.761,93.666 124.366,99.203 124.181,99.537C123.915,100.016 123.841,104.872 123.834,122.4L123.825,144.656L124.395,145.419C125.308,146.64 131.002,152.383 132.133,153.222L133.165,153.988L176.202,153.988L176.765,155.112C177.542,156.661 178.736,157.833 180.242,158.541ZM185.136,153.848C184.364,154.62 184.011,154.781 183.092,154.781C182.181,154.781 181.818,154.619 181.081,153.882C180.343,153.144 180.181,152.782 180.181,151.871C180.181,150.96 180.343,150.597 181.081,149.86C182.911,148.03 185.633,149.048 185.929,151.674C186.059,152.824 186.001,152.983 185.136,153.848ZM183.847,152.135C183.841,152.061 183.834,151.981 183.826,151.911C183.781,151.512 183.627,151.186 183.339,151.078C183.091,150.986 182.817,151.117 182.578,151.357C182.382,151.553 182.298,151.629 182.298,151.871C182.298,152.113 182.382,152.189 182.578,152.385C182.773,152.581 182.85,152.665 183.092,152.665C183.35,152.665 183.423,152.568 183.639,152.351C183.707,152.284 183.783,152.204 183.847,152.135ZM157.945,72.861C156.291,74.254 152.971,73.568 151.971,71.627C150.575,68.917 152.163,65.908 155.103,65.691C157.637,65.503 159.544,67.141 159.544,69.505C159.544,70.902 159.056,71.927 157.945,72.861ZM156.583,71.242C157.159,70.756 157.427,70.231 157.427,69.505C157.427,68.392 156.453,67.713 155.259,67.802C153.865,67.905 153.191,69.372 153.853,70.658C154.078,71.096 154.616,71.313 155.141,71.421C155.653,71.527 156.218,71.549 156.583,71.242ZM186.564,127.777C184.279,128.943 181.749,128.131 180.877,125.95C180.31,124.534 180.333,123.696 180.975,122.37C182.322,119.588 185.986,119.391 187.915,121.996C189.232,123.774 188.531,126.774 186.564,127.777ZM185.602,125.892C186.042,125.667 186.295,125.187 186.41,124.695C186.525,124.201 186.51,123.655 186.214,123.255C185.289,122.006 183.526,121.958 182.88,123.292C182.545,123.985 182.546,124.423 182.842,125.164C183.259,126.206 184.51,126.449 185.602,125.892ZM152.302,79.696C152.196,79.666 152.102,79.635 152.024,79.603C152.111,79.639 152.204,79.671 152.302,79.696ZM163.428,98.425L160.927,98.425L157.903,98.425L150.908,105.424L143.905,112.43L143.856,119.269L143.807,126.135L143.929,126.266C145.404,127.851 145.785,128.85 145.785,130.78C145.785,135.426 140.734,138.43 136.598,136.215C134.653,135.174 133.085,132.613 133.085,130.654C133.085,129.085 133.945,127.139 135.188,125.993L135.203,125.979L135.211,118.551C135.216,114.03 135.266,111.568 135.383,110.336C135.475,109.36 135.681,108.821 135.827,108.558C136,108.246 138.792,105.257 142.193,101.809C147.15,96.783 153.374,90.697 153.849,90.421L154.911,90.061C155.729,89.908 157.567,89.763 159.877,89.695L163.114,89.599L163.277,89.278C165.331,85.207 168.498,83.232 172.904,83.218C175.233,83.211 175.793,83.343 177.754,84.309C185.688,88.215 185.507,99.756 177.448,103.446C176.47,103.893 174.818,104.335 173.779,104.429C169.617,104.807 165.226,102.24 163.428,98.425ZM137.597,134.349C140.326,135.81 143.668,133.845 143.668,130.78C143.668,129.463 143.386,128.79 142.379,127.708L141.684,126.961L141.795,111.547L149.411,103.928L157.026,96.308L164.828,96.308L165.215,97.234C166.553,100.437 170.165,102.632 173.587,102.321C174.432,102.245 175.772,101.885 176.566,101.521C183.016,98.569 183.168,89.333 176.819,86.208C175.239,85.43 174.787,85.329 172.91,85.335C169.362,85.346 166.821,86.952 165.166,90.231L164.436,91.678L159.939,91.81C157.242,91.89 155.231,92.066 154.913,92.251C154.15,92.695 138.084,108.853 137.678,109.585C137.421,110.048 137.335,112.249 137.328,118.553L137.319,126.908L136.623,127.549C135.793,128.315 135.202,129.606 135.202,130.654C135.202,131.965 136.295,133.652 137.597,134.349ZM174.88,97.301C172.605,98.467 170.143,97.615 169.167,95.325C168.028,92.651 169.972,89.699 172.874,89.695C177.117,89.69 178.619,95.383 174.88,97.301ZM173.914,95.417C175.698,94.503 174.901,91.809 172.877,91.812C171.495,91.814 170.572,93.222 171.114,94.495C171.59,95.612 172.805,95.986 173.914,95.417ZM108.348,212.196C108.401,210.439 108.479,206.954 108.479,201.717L108.479,189.418C108.479,188.856 108.702,188.318 109.099,187.921L109.749,187.271C111.386,185.634 113.973,185.527 115.864,187.152L116.606,187.791C117.07,188.19 117.339,188.77 117.343,189.382L117.419,201.763C117.444,205.854 117.514,209.973 117.557,212.224C118.375,212.232 119.393,212.236 120.393,212.223C123.884,212.178 125.974,212.21 127.349,212.386C129.277,212.633 130.176,213.155 131.052,213.958L132.002,214.828C132.439,215.229 132.688,215.795 132.688,216.388L132.688,224.337C132.688,229.133 132.669,231.478 132.375,232.653C132.31,232.916 132.232,233.144 132.147,233.344L131.751,234.044L131.37,234.476L130.919,234.828C130.399,235.161 129.693,235.324 128.669,235.433L128.454,243.52C128.439,244.117 128.171,244.68 127.718,245.069L126.233,246.345C125.849,246.675 125.36,246.856 124.854,246.856L101.1,246.856C100.594,246.856 100.105,246.675 99.721,246.345L98.978,245.707L98.236,245.069C97.783,244.68 97.516,244.117 97.5,243.52L97.286,235.483C96.277,235.389 95.543,235.23 94.993,234.922L94.358,234.463L93.836,233.861C93.518,233.395 93.25,232.761 93.098,231.847C92.869,230.467 92.881,228.089 92.923,223.943L93.001,216.417C93.007,215.863 93.23,215.333 93.621,214.941L94.438,214.125C95.13,213.434 96.418,212.709 97.293,212.499C97.907,212.352 101.11,212.212 104.414,212.24C105.819,212.252 107.291,212.224 108.348,212.196ZM100.358,244.102L101.1,244.74L124.854,244.74L126.338,243.464L126.603,233.495L128.118,233.36C130.677,233.132 130.572,233.519 130.572,224.337L130.572,216.388L129.622,215.518C128.427,214.423 127.104,214.254 120.421,214.34C117.782,214.374 115.569,214.346 115.501,214.279C115.434,214.211 115.344,208.585 115.302,201.776L115.226,189.395L114.484,188.757C113.483,187.896 112.112,187.901 111.245,188.768L110.596,189.418L110.596,201.717C110.596,210.901 110.517,214.066 110.283,214.21C110.111,214.317 107.461,214.382 104.396,214.356C101.33,214.33 98.356,214.421 97.787,214.557C97.218,214.694 96.384,215.173 95.935,215.622L95.118,216.439L95.04,223.965C94.943,233.375 94.896,233.234 98.16,233.425L99.351,233.495L99.483,238.479L99.616,243.464L100.358,244.102ZM125.545,224.631L125.545,227.145L100.288,227.282L100.138,226.681C100.055,226.351 100.022,225.189 100.066,224.099L100.145,222.118L125.545,222.118L125.545,224.631ZM102.179,224.234C102.169,224.519 102.169,224.847 102.174,225.155L112.905,225.097L123.428,225.04L123.428,224.631L123.428,224.234L102.179,224.234ZM121.576,236.67L121.576,239.845L119.257,239.921C117.496,239.979 116.904,239.912 116.8,239.64C116.724,239.443 116.696,237.98 116.738,236.388L116.814,233.495L121.576,233.495L121.576,236.67ZM118.844,237.814C118.956,237.812 119.071,237.81 119.187,237.806L119.459,237.797L119.459,236.67L119.459,235.611L118.876,235.611L118.854,236.444C118.842,236.894 118.841,237.378 118.844,237.814ZM109.141,236.67L109.141,239.845L106.999,239.921C105.39,239.978 104.778,239.903 104.542,239.618C104.33,239.363 104.252,238.299 104.303,236.367L104.378,233.495L109.141,233.495L109.141,236.67ZM106.424,237.814C106.585,237.814 106.755,237.812 106.923,237.806L107.024,237.802L107.024,236.67L107.024,235.611L106.44,235.611L106.419,236.423C106.406,236.922 106.412,237.411 106.424,237.814Z" style="fill:white;"/>
                </g>
                <path id="path2" d="M64.161,217.044C63.725,216.989 62.191,216.701 60.753,216.403C51.887,214.565 44.325,209.788 39.741,203.129C38.051,200.674 37.181,198.812 36.261,195.684L35.568,193.328L33.67,192.335C23.813,187.175 18.506,175.695 20.662,164.195C20.902,162.912 20.886,162.865 19.615,161.02C16.246,156.131 14.996,151.96 14.969,145.521C14.942,138.893 16.652,133.131 19.993,128.593L21.223,126.922L20.798,124.37C19.199,114.769 22.382,105.962 29.421,100.518C30.556,99.639 31.486,98.839 31.487,98.739C31.542,89.51 33.758,83.679 39.208,78.426C42.051,75.685 45.286,73.732 48.622,72.744C49.636,72.443 49.834,72.241 50.563,70.761C52.49,66.845 56.738,62.745 60.921,60.762C63.9,59.35 65.45,58.979 69.056,58.811L72.364,58.657L73.819,57.354C77.058,54.452 81.311,52.578 85.752,52.094C87.187,51.938 88.51,51.86 88.692,51.921C88.875,51.982 87.716,52.167 86.118,52.331C80.941,52.865 76.168,55.056 73.29,58.221C72.649,58.926 72.521,58.953 69.189,59.092C64.643,59.282 61.831,60.166 58.405,62.483C55.147,64.687 52.32,67.801 50.805,70.856C50.35,71.773 49.776,72.594 49.529,72.68C44.749,74.347 41.892,76.049 39.007,78.949C34.247,83.734 32.181,88.743 31.864,96.266C31.756,98.821 31.689,99.124 31.153,99.483C26.564,102.562 22.751,107.895 21.411,113.109C20.612,116.219 20.457,120.664 21.026,124.135L21.487,126.947L20.371,128.458C17.005,133.015 15.219,138.893 15.227,145.389C15.235,151.971 16.709,156.752 20.146,161.335C21.176,162.708 21.188,162.75 20.935,164.116C19.493,171.915 21.358,179.78 26.046,185.671C28.097,188.249 31.396,190.96 34.049,192.245L35.95,193.167L36.257,194.678C37.674,201.661 43.655,208.896 51.219,212.779C54.167,214.292 56.761,215.231 60.325,216.078C64.076,216.969 71.661,217.232 75.31,216.596C83.535,215.163 90.319,211.005 95.425,204.266C97.474,201.561 99.747,197.047 100.651,193.89C102.195,188.494 102.13,191.57 102.125,124.982C102.12,59.289 102.177,62.109 100.791,59.16C99.148,55.666 95.364,53.202 90.355,52.366L89.032,52.145L90.488,52.241C95.438,52.566 100.138,56.058 101.662,60.544L102.261,62.309L102.335,124.09C102.4,178.99 102.362,186.187 101.994,188.718C100.906,196.207 97.992,202.226 92.891,207.518C90.066,210.448 87.887,212.102 84.667,213.758C79.732,216.296 75.421,217.244 69.088,217.183C66.815,217.161 64.598,217.099 64.161,217.044ZM73.45,204.919C70.956,204.224 68.729,202.905 66.698,200.92L64.737,199.003L62.926,199.915C59.335,201.723 55.872,202.021 52.11,200.844C50.164,200.234 47.545,198.542 47.403,197.8C47.297,197.253 47.361,197.257 50.668,198.008C54.172,198.803 57.58,198.43 60.918,196.885C63.581,195.653 63.542,195.716 62.964,193.543C61.993,189.888 62.404,185.915 64.142,182.152C65.453,179.315 68.06,175.948 68.946,175.948C69.272,175.948 68.944,176.948 68.014,178.784C66.308,182.155 65.83,183.908 65.688,187.325C65.497,191.927 66.397,195.026 68.888,198.336C70.792,200.865 73.401,202.676 76.857,203.866C77.823,204.199 78.449,204.566 78.449,204.799C78.449,205.327 75.193,205.405 73.45,204.919ZM78.004,204.774C77.953,204.621 77.081,204.206 76.066,203.851C72.315,202.541 68.835,199.476 67.095,195.951C65.695,193.115 65.274,190.943 65.421,187.325C65.561,183.906 66.272,181.369 67.928,178.382C69.486,175.573 68.422,175.982 66.242,179.031C63.068,183.469 61.968,188.759 63.223,193.543C63.593,194.953 63.636,195.485 63.406,195.771C62.924,196.37 59.469,197.868 57.499,198.333C55.356,198.838 51.703,198.703 49.517,198.038C48.739,197.801 48.034,197.676 47.951,197.759C47.668,198.042 48.964,199.153 50.394,199.853C54.48,201.854 58.702,201.778 62.975,199.626L64.83,198.692L66.746,200.633C68.744,202.657 70.901,203.949 73.45,204.649C75.039,205.086 78.136,205.17 78.004,204.774ZM77.134,194.217C76.84,193.741 77.447,193.226 78.52,193.044C81.29,192.574 85.286,190.092 87.14,187.691C88.373,186.094 88.9,185.896 88.9,187.028C88.9,189.038 86.376,192.197 83.676,193.565C82.392,194.215 81.773,194.351 79.736,194.427C78.127,194.487 77.258,194.417 77.134,194.217ZM83.566,193.308C85.444,192.345 87.214,190.676 87.998,189.13C88.566,188.01 88.837,186.796 88.519,186.796C88.455,186.796 87.473,187.719 86.336,188.846C84.083,191.082 82.387,192.125 79.53,193.031C76.806,193.895 76.905,194.3 79.805,194.153C81.692,194.057 82.431,193.891 83.566,193.308ZM50.32,187.548C47.269,187.063 44.032,184.687 42.341,181.691L41.489,180.181L40.115,180.181C38.325,180.181 35.886,179.536 34.413,178.672C32.218,177.386 30.198,175.154 31.229,175.154C31.379,175.154 32.234,175.463 33.13,175.84C34.874,176.574 37.862,176.945 39.522,176.633L40.481,176.453L40.481,174.398C40.481,173.183 40.701,171.505 41.019,170.291L41.556,168.239L40.421,166.976C38.637,164.992 37.72,162.926 37.711,160.867C37.703,159.057 37.978,158.527 38.468,159.411C40.53,163.136 42.442,165.142 45.149,166.421C47.682,167.618 49.964,167.93 52.972,167.492C56.263,167.012 56.458,167.014 56.562,167.527C56.687,168.143 55.011,169.231 52.955,169.869C51.124,170.438 47.605,170.577 46.083,170.14C45.245,169.9 45.189,169.929 44.825,170.801C43.79,173.277 44.165,177.422 45.673,180.194C47.118,182.848 50.704,185.519 53.644,186.13C54.678,186.345 54.861,187.243 53.909,187.435C52.439,187.731 51.631,187.756 50.32,187.548L50.32,187.548ZM53.909,187.178C54.576,186.974 54.211,186.544 53.122,186.251C47.468,184.728 43.538,179.314 44.012,173.698C44.175,171.763 44.62,170.115 45.058,169.825C45.199,169.732 45.685,169.761 46.137,169.891C47.46,170.271 51.106,170.165 52.67,169.701C54.347,169.205 56.416,168.059 56.295,167.694C56.18,167.35 56.171,167.35 53.139,167.751C49.861,168.185 47.606,167.877 45.004,166.638C42.941,165.657 40.173,163.023 39.007,160.933C38.581,160.169 38.143,159.544 38.034,159.544C37.925,159.544 37.835,160.113 37.835,160.808C37.835,162.398 39.163,165.25 40.719,167.002L41.82,168.242L41.283,170.293C40.963,171.513 40.746,173.183 40.746,174.417C40.746,176.433 40.726,176.498 40.018,176.774C38.881,177.219 35.039,176.892 33.266,176.201C32.426,175.874 31.652,175.695 31.546,175.803C31.313,176.042 33.064,177.608 34.528,178.472C35.917,179.29 38.378,179.917 40.207,179.917L41.673,179.917L42.334,181.163C43.315,183.014 45.544,185.277 47.315,186.221C49.4,187.332 52.119,187.727 53.909,187.178L53.909,187.178ZM85.173,176.095C79.83,174.621 75.73,169.902 74.494,163.802L74.204,162.373L72.15,161.888C68.299,160.979 66.296,159.816 60.631,155.195C59.271,154.086 57.663,152.928 57.059,152.622C55.032,151.594 55.19,150.946 57.416,151.148C59.276,151.316 61.848,152.558 65.048,154.832C67.843,156.819 69.979,157.843 72.387,158.353C74.647,158.832 75.759,158.834 78.407,158.361C83.6,157.436 88.005,153.847 89.274,149.507C89.505,148.717 89.694,147.731 89.694,147.316C89.694,146.471 90.393,146.02 90.794,146.606C90.933,146.809 90.996,148.085 90.935,149.441C90.835,151.663 90.724,152.104 89.806,153.912C87.903,157.66 84.464,160.418 80.103,161.695C77.729,162.39 77.696,162.466 78.604,165.174C79.318,167.305 79.955,168.33 81.727,170.201C83.875,172.47 86.667,173.863 90.061,174.36C91.259,174.536 91.302,174.562 90.435,174.592C87.924,174.676 83.139,172.396 81.205,170.193C79.324,168.051 77.788,164.704 77.788,162.749C77.788,162.095 77.927,162.006 79.642,161.564C82.627,160.795 84.573,159.677 86.806,157.447C88.203,156.052 89.082,154.893 89.697,153.636C90.492,152.009 90.582,151.593 90.6,149.428C90.623,146.598 90.217,146.119 89.773,148.455C88.808,153.535 84.295,157.577 78.419,158.624C75.759,159.098 74.649,159.097 72.387,158.618C69.97,158.106 67.874,157.097 64.788,154.96C61.472,152.664 59.283,151.597 57.517,151.415C56.733,151.334 56.094,151.374 56.097,151.503C56.1,151.633 56.706,152.096 57.445,152.532C58.183,152.969 60.056,154.372 61.607,155.651C66.43,159.628 68.864,160.972 72.609,161.725L74.441,162.094L74.782,163.765C75.552,167.54 76.657,169.648 79.229,172.252C80.957,174.001 83.544,175.469 85.759,175.955C87.515,176.341 91.349,176.182 92.406,175.68C93.387,175.213 93.324,174.682 92.273,174.552L91.414,174.445L92.377,174.403C94.253,174.32 93.743,175.62 91.678,176.185C90.285,176.566 86.7,176.516 85.173,176.095L85.173,176.095ZM25.947,155.344C25.537,154.578 25.601,151.388 26.057,149.853C26.272,149.127 26.922,147.858 27.5,147.032L28.551,145.532L27.874,144.053C27.502,143.24 27.15,142.077 27.092,141.468C27,140.492 27.034,140.54 27.378,141.88C27.592,142.715 28.013,143.88 28.314,144.469C28.9,145.617 28.901,145.61 27.601,147.318C26.506,148.757 25.928,150.694 25.933,152.911C25.937,154.677 26.284,155.841 26.567,155.038C27.86,151.374 28.587,150.032 29.978,148.739C30.626,148.136 30.694,148.129 32.658,148.445C33.767,148.624 34.619,148.825 34.552,148.892C34.485,148.959 33.563,148.868 32.503,148.689L30.575,148.364L29.682,149.39C28.561,150.678 27.607,152.534 27.153,154.309C26.766,155.819 26.379,156.151 25.947,155.344ZM35.52,148.917C36.469,148.571 36.438,148.327 35.36,147.661C31.83,145.479 29.589,140.475 30.41,136.606C30.996,133.844 32.868,130.831 34.991,129.233C36.094,128.403 36.236,128.058 35.476,128.058C34.626,128.058 32.749,128.987 31.335,130.107C29.033,131.931 27.766,134.363 27.097,138.245L26.732,140.361L26.864,138.604C27.103,135.433 28.401,132.526 30.472,130.522C32.45,128.609 35.84,127.184 36.37,128.042C36.455,128.179 36.331,128.447 36.094,128.638C33.068,131.076 31.38,133.529 30.691,136.487C29.816,140.244 31.803,144.961 35.194,147.179C36.602,148.099 36.872,148.802 35.917,149.058C34.985,149.308 34.714,149.212 35.52,148.917ZM75.613,143.597C70.743,138.691 65.747,136.276 60.447,136.265C56.01,136.256 51.965,138.001 48.588,141.381C47.403,142.566 46.118,143.953 45.732,144.462C45.103,145.292 45.009,145.337 44.83,144.889C44.524,144.126 45.473,141.66 46.89,139.536C48.102,137.718 49.27,136.49 50.923,135.296L51.708,134.728L50.226,133.27C48.625,131.694 46.814,128.485 46.855,127.295C46.872,126.786 46.968,126.926 47.215,127.822C47.764,129.813 48.955,131.712 50.623,133.256L52.191,134.708L51.562,135.126C49.953,136.195 46.915,139.639 46.097,141.32C45.197,143.168 44.757,144.737 45.145,144.713C45.272,144.705 46.016,143.86 46.798,142.836C49.951,138.706 55.373,135.99 60.447,136C63.229,136.005 65.453,136.551 68.386,137.95C71.258,139.32 73.292,140.826 75.9,143.513C77.921,145.595 78.48,145.942 78.172,144.926C77.397,142.363 74.697,138.955 71.812,136.896C68.486,134.523 65.55,133.55 59.924,132.957C55.136,132.453 53.045,131.489 51.349,129.005C48.78,125.241 49.336,120.727 52.801,117.203C53.592,116.398 54.24,115.654 54.24,115.549C54.24,115.119 52.965,115.411 51.714,116.129C48.793,117.805 47.155,120.508 46.819,124.205L46.602,126.603L46.688,124.222C46.793,121.315 47.358,119.873 49.138,117.97C51.117,115.854 54.067,114.437 54.622,115.336C54.705,115.469 54.128,116.192 53.342,116.943C49.377,120.726 48.902,125.939 52.192,129.538C54.119,131.648 55.544,132.231 59.876,132.688C64.322,133.156 66.197,133.621 68.924,134.931C72.93,136.855 75.923,139.702 77.752,143.33C79.41,146.62 78.702,146.709 75.613,143.597ZM86.646,135.988C86.544,135.822 87.265,134.87 88.307,133.795C95.046,126.844 94.119,116.401 86.188,109.922C83.602,107.809 84.513,107.247 87.831,108.907C89.859,109.922 91.948,111.796 93.397,113.902C94.321,115.245 95.518,117.979 95.509,118.727C95.506,118.984 95.227,118.413 94.89,117.456C93.67,114 90.57,110.444 87.519,109.001C85.901,108.235 85.196,108.046 85.196,108.377C85.196,108.467 86.238,109.568 87.511,110.824C91.44,114.702 93.006,118.157 92.984,122.899C92.963,127.236 91.423,131.089 88.569,133.945C87.733,134.782 87.048,135.526 87.048,135.599C87.048,135.967 88.067,135.642 89.208,134.909C92.78,132.618 95.229,128.206 95.772,123.086L96.016,120.782L95.911,123.084C95.737,126.929 94.124,130.664 91.471,133.37C89.64,135.238 87.051,136.643 86.646,135.988ZM73.275,126.022C68.755,123.783 65.555,117.404 66.003,111.522C66.091,110.358 66.398,108.512 66.684,107.421C67.472,104.415 67.611,102.031 67.111,100.083C65.916,95.421 63.341,93.113 58.349,92.226C56.786,91.949 56.74,91.916 56.1,90.623C55.525,89.464 55.448,88.967 55.462,86.522C55.482,83.184 55.985,81.104 57.458,78.268C58.948,75.399 61.87,72.63 62.618,73.378C62.701,73.461 62.208,74.276 61.522,75.189C59.983,77.237 59.486,78.201 58.75,80.566C58.125,82.578 57.763,86.396 58.051,87.935C58.222,88.848 58.288,88.9 59.255,88.9C61.784,88.9 65.286,90.62 67.213,92.81C68.255,93.993 70.379,97.87 70.379,98.588C70.379,99.178 70.744,99.018 71.716,98.002C72.218,97.478 73.284,96.541 74.085,95.919C75.762,94.619 80.72,91.81 81.339,91.81C82.388,91.81 81.59,92.969 78.669,95.686C73.461,100.531 71.081,104.245 69.963,109.273C69.785,110.073 69.627,110.485 69.613,110.188C69.564,109.223 70.375,106.539 71.322,104.532C72.649,101.718 74.374,99.527 78.163,95.841C81.084,93.001 81.868,92.075 81.353,92.075C81.019,92.075 77.241,94.091 75.671,95.107C74.725,95.718 73.184,96.946 72.247,97.835C70.563,99.432 70.115,99.621 70.115,98.733C70.115,98.021 68.426,94.708 67.429,93.464C65.471,91.02 61.935,89.165 59.232,89.165C57.821,89.165 57.584,88.502 57.762,85.064C57.968,81.098 59.206,77.652 61.451,74.799C62.433,73.55 62.223,73.254 61.011,74.179C57.337,76.982 54.972,83.543 55.802,88.632C56.189,91.004 56.698,91.603 58.657,91.997C62.67,92.805 65.037,94.435 66.451,97.367C67.889,100.347 68.03,103.149 66.954,107.365C65.771,111.999 66.064,116.02 67.86,119.801C68.977,122.153 71.45,124.843 73.378,125.804C75.843,127.032 76.049,126.583 73.984,124.485C72.235,122.708 70.26,118.913 69.714,116.284C69.503,115.266 69.345,113.599 69.364,112.58C69.397,110.778 69.403,110.796 69.591,113.258C69.941,117.847 71.416,121.346 74.282,124.385C75.191,125.349 75.935,126.273 75.935,126.437C75.935,126.947 74.78,126.767 73.275,126.022ZM95.566,119.989C95.572,119.552 95.631,119.405 95.698,119.663C95.765,119.92 95.761,120.277 95.688,120.457C95.616,120.636 95.561,120.425 95.566,119.989L95.566,119.989ZM35.527,117.52C35.022,117.208 34.829,114.537 35.171,112.575C35.874,108.539 38.223,105.036 42.023,102.354L43.169,101.546L42.638,100.978C41.84,100.121 40.794,97.883 40.455,96.303C39.925,93.83 40.627,90.574 42.057,88.878C43.053,87.696 43.475,88.029 43.09,89.694C42.382,92.759 43.435,96.329 45.733,98.657C47.43,100.375 48.551,100.981 51.197,101.609C52.683,101.962 53.049,102.148 53.049,102.55C53.049,102.979 52.66,103.118 50.361,103.511C47.121,104.065 45.282,104.723 43.221,106.066C39.958,108.191 37.646,111.542 36.626,115.623C36.148,117.538 35.992,117.807 35.527,117.52ZM36.387,115.465C37.094,112.671 38.783,109.631 40.648,107.793C43.29,105.19 46.086,103.965 51.594,102.997C52.249,102.882 52.761,102.675 52.733,102.537C52.704,102.398 51.749,102.038 50.611,101.737C48.076,101.066 46.987,100.414 45.278,98.545C43.332,96.416 42.737,94.715 42.756,91.344L42.772,88.628L42.164,89.199C41.214,90.092 40.617,92.181 40.625,94.589C40.631,96.331 40.761,96.984 41.361,98.282C41.762,99.149 42.395,100.258 42.767,100.746C43.14,101.235 43.403,101.664 43.352,101.7C39.127,104.664 37.182,106.98 35.976,110.485C35.304,112.437 35.031,115.484 35.435,116.52C35.811,117.483 35.901,117.383 36.387,115.465L36.387,115.465ZM89.429,100.05C89.429,99.925 89.843,98.927 90.348,97.833C91.318,95.735 92.075,92.224 92.075,89.827C92.075,86.466 90.753,83.026 88.415,80.301C87.666,79.428 87.052,78.565 87.05,78.383C87.043,77.329 90.161,79.014 91.922,81.016C93.53,82.843 94.637,85.14 95.026,87.455C95.624,91.018 94.321,95.425 91.684,98.756C90.943,99.692 90.278,100.277 89.954,100.277C89.666,100.277 89.429,100.175 89.429,100.05ZM93.441,95.519C93.891,94.569 94.445,92.742 94.675,91.448C95.059,89.289 95.058,88.93 94.655,86.984C94.136,84.472 93.045,82.501 91.104,80.571C89.792,79.265 87.746,78.059 87.412,78.394C87.324,78.482 87.839,79.244 88.557,80.089C90.242,82.073 90.652,82.749 91.45,84.869C92.758,88.346 92.459,93.778 90.751,97.545C90.315,98.506 89.964,99.484 89.97,99.718C89.991,100.469 92.579,97.338 93.441,95.519L93.441,95.519ZM77.094,80.899C75.893,79.844 75.144,78.265 75.18,76.861C75.207,75.832 75.213,75.839 75.404,77.136C75.511,77.87 75.79,78.838 76.022,79.288C76.522,80.253 77.992,81.557 78.416,81.411C78.731,81.303 78.732,81.084 78.435,77.493C78.09,73.326 79.368,70.165 82.868,66.518C84.047,65.291 84.94,64.215 84.854,64.128C84.561,63.835 82.263,64.794 80.954,65.756C78.218,67.764 75.988,71.234 75.42,74.366L75.159,75.803L75.274,74.386C75.455,72.141 77.115,69.001 79.153,67.051C81.071,65.214 82.772,64.149 84.204,63.887C85.713,63.611 85.488,64.181 83.145,66.569C79.241,70.55 77.904,74.591 78.882,79.459C79.117,80.63 79.11,81.042 78.849,81.355C78.383,81.917 78.2,81.87 77.094,80.899Z" style="fill:rgb(82,96,111);fill-rule:nonzero;"/>
                <g id="path1">
                    <path d="M64.161,216.78C62.125,216.524 57.922,215.52 55.859,214.796C50.73,212.995 46.422,210.226 42.723,206.351C39.413,202.884 37.06,198.635 36.257,194.678L35.95,193.167L34.049,192.245C31.396,190.96 28.097,188.249 26.046,185.671C21.358,179.78 19.493,171.915 20.935,164.116C21.188,162.75 21.176,162.708 20.146,161.335C16.709,156.752 15.235,151.971 15.227,145.389C15.219,138.893 17.005,133.015 20.371,128.458L21.487,126.947L21.026,124.135C20.457,120.664 20.612,116.219 21.411,113.109C22.751,107.895 26.564,102.562 31.153,99.483C31.689,99.124 31.756,98.821 31.864,96.266C32.181,88.743 34.247,83.734 39.007,78.949C41.892,76.049 44.749,74.347 49.529,72.68C49.776,72.594 50.35,71.773 50.805,70.856C52.32,67.801 55.147,64.687 58.405,62.483C61.831,60.166 64.643,59.282 69.189,59.092C72.521,58.953 72.649,58.926 73.29,58.221C76.03,55.208 80.865,52.908 85.585,52.373C92.321,51.609 98.548,54.388 100.791,59.16C102.177,62.109 102.12,59.289 102.125,124.982C102.13,191.57 102.195,188.493 100.651,193.89C99.747,197.047 97.474,201.561 95.425,204.266C90.36,210.951 83.536,215.159 75.483,216.564C73.406,216.926 66.396,217.06 64.161,216.78ZM78.449,204.799C78.449,204.566 77.823,204.199 76.857,203.866C73.401,202.676 70.792,200.865 68.888,198.336C66.397,195.026 65.497,191.927 65.688,187.325C65.83,183.908 66.308,182.155 68.014,178.784C68.943,176.948 69.272,175.948 68.946,175.948C68.06,175.948 65.453,179.315 64.142,182.152C62.404,185.915 61.993,189.888 62.964,193.543C63.542,195.716 63.581,195.653 60.918,196.885C57.58,198.43 54.172,198.803 50.668,198.008C47.361,197.257 47.297,197.253 47.403,197.8C47.545,198.542 50.164,200.234 52.11,200.844C55.872,202.021 59.335,201.723 62.926,199.915L64.737,199.003L66.698,200.92C69.706,203.86 73.064,205.323 76.597,205.232C78.02,205.195 78.449,205.095 78.449,204.799ZM83.676,193.565C86.376,192.197 88.9,189.038 88.9,187.028C88.9,185.896 88.373,186.094 87.14,187.691C85.286,190.092 81.29,192.574 78.52,193.044C77.447,193.226 76.84,193.741 77.134,194.217C77.258,194.417 78.127,194.487 79.736,194.427C81.773,194.351 82.392,194.215 83.676,193.565ZM53.909,187.435C54.861,187.243 54.678,186.345 53.644,186.13C50.704,185.519 47.118,182.848 45.673,180.194C44.165,177.422 43.79,173.277 44.825,170.801C45.189,169.929 45.245,169.9 46.083,170.14C47.605,170.577 51.124,170.438 52.955,169.869C55.011,169.231 56.687,168.143 56.562,167.527C56.458,167.014 56.263,167.012 52.972,167.492C49.964,167.93 47.682,167.618 45.149,166.421C42.442,165.142 40.53,163.136 38.468,159.412C37.978,158.527 37.703,159.057 37.711,160.867C37.72,162.926 38.637,164.992 40.421,166.976L41.556,168.239L41.019,170.291C40.701,171.505 40.481,173.183 40.481,174.398L40.481,176.453L39.522,176.633C37.862,176.945 34.874,176.574 33.13,175.84C32.234,175.463 31.379,175.154 31.229,175.154C30.198,175.154 32.218,177.386 34.413,178.672C35.886,179.536 38.325,180.181 40.115,180.181L41.489,180.181L42.341,181.691C44.809,186.063 49.4,188.343 53.909,187.435L53.909,187.435ZM91.678,176.185C92.928,175.843 93.681,175.246 93.49,174.747C93.392,174.493 92.804,174.389 91.457,174.388C87.826,174.385 84.22,172.834 81.727,170.201C79.955,168.33 79.318,167.305 78.604,165.174C77.696,162.467 77.729,162.39 80.103,161.695C84.464,160.419 87.903,157.66 89.806,153.912C90.724,152.104 90.835,151.663 90.935,149.441C90.996,148.085 90.933,146.81 90.794,146.607C90.393,146.021 89.694,146.472 89.694,147.317C89.694,147.731 89.505,148.717 89.274,149.508C88.005,153.847 83.6,157.436 78.407,158.362C75.759,158.834 74.647,158.832 72.387,158.354C69.979,157.844 67.843,156.819 65.048,154.833C61.848,152.559 59.276,151.317 57.416,151.148C55.19,150.946 55.032,151.595 57.059,152.622C57.663,152.928 59.271,154.087 60.631,155.196C66.296,159.816 68.299,160.98 72.15,161.888L74.204,162.373L74.494,163.803C75.223,167.4 77.105,170.868 79.448,172.931C80.893,174.202 83.465,175.624 85.173,176.095C86.7,176.517 90.285,176.566 91.678,176.185L91.678,176.185ZM27.153,154.309C27.607,152.533 28.562,150.678 29.684,149.387L30.579,148.359L32.996,148.773C34.325,149 35.66,149.122 35.963,149.042C36.875,148.804 36.578,148.083 35.194,147.179C31.803,144.961 29.816,140.244 30.691,136.487C31.38,133.529 33.068,131.076 36.094,128.638C36.331,128.447 36.455,128.179 36.37,128.042C36.073,127.561 34.698,127.802 33.166,128.604C27.658,131.486 25.295,138.42 27.889,144.087L28.551,145.532L27.5,147.032C26.2,148.887 25.665,150.628 25.665,152.995C25.665,156.023 26.521,156.779 27.153,154.309ZM78.581,145.365C78.581,144.687 76.966,141.741 75.731,140.167C73.478,137.295 69.008,134.475 65.149,133.491C64.237,133.259 61.864,132.897 59.876,132.688C55.544,132.231 54.119,131.648 52.192,129.538C48.902,125.939 49.377,120.726 53.342,116.943C54.844,115.509 54.938,115.092 53.761,115.096C51.982,115.102 48.42,118.125 47.298,120.581C46.821,121.625 46.72,122.342 46.711,124.765C46.699,127.633 46.718,127.729 47.714,129.743C48.381,131.092 49.24,132.299 50.219,133.262L51.708,134.728L50.923,135.296C49.27,136.49 48.102,137.718 46.89,139.536C45.473,141.66 44.524,144.126 44.83,144.889C45.009,145.337 45.103,145.292 45.732,144.462C46.118,143.953 47.403,142.566 48.588,141.381C51.965,138.001 56.01,136.255 60.447,136.265C65.747,136.276 70.743,138.691 75.613,143.597C77.91,145.911 78.581,146.311 78.581,145.365ZM89.09,135.301C91.559,133.885 93.944,130.742 95.122,127.353C97.577,120.293 94.37,112.178 87.831,108.907C84.513,107.247 83.602,107.809 86.188,109.922C94.119,116.401 95.046,126.844 88.307,133.795C85.886,136.292 86.225,136.944 89.09,135.301ZM75.935,126.437C75.935,126.273 75.171,125.328 74.237,124.338C71.079,120.991 69.398,116.416 69.672,111.919C70.035,105.966 72.608,101.324 78.669,95.686C81.59,92.969 82.388,91.81 81.339,91.81C80.72,91.81 75.762,94.619 74.085,95.919C73.284,96.541 72.218,97.478 71.716,98.002C70.744,99.018 70.379,99.178 70.379,98.588C70.379,97.87 68.255,93.993 67.213,92.81C65.286,90.62 61.784,88.9 59.255,88.9C58.288,88.9 58.222,88.848 58.051,87.935C57.763,86.396 58.125,82.578 58.75,80.566C59.486,78.201 59.983,77.237 61.522,75.189C62.208,74.276 62.701,73.461 62.618,73.378C61.87,72.63 58.948,75.399 57.458,78.268C55.985,81.104 55.482,83.184 55.462,86.522C55.448,88.967 55.525,89.464 56.1,90.623C56.74,91.916 56.786,91.949 58.349,92.226C63.341,93.113 65.916,95.421 67.111,100.083C67.611,102.031 67.472,104.415 66.684,107.421C66.398,108.512 66.091,110.358 66.003,111.522C65.555,117.404 68.755,123.783 73.275,126.022C74.78,126.767 75.935,126.947 75.935,126.437ZM36.626,115.623C37.646,111.542 39.958,108.191 43.221,106.066C45.282,104.723 47.121,104.065 50.361,103.511C52.66,103.118 53.049,102.979 53.049,102.55C53.049,102.148 52.683,101.962 51.197,101.609C48.551,100.981 47.43,100.375 45.733,98.657C43.435,96.329 42.382,92.759 43.09,89.694C43.475,88.029 43.053,87.696 42.057,88.878C40.627,90.574 39.925,93.83 40.455,96.303C40.794,97.883 41.84,100.121 42.638,100.978L43.169,101.546L42.023,102.354C38.223,105.036 35.874,108.539 35.171,112.575C34.829,114.537 35.022,117.208 35.527,117.52C35.992,117.807 36.148,117.538 36.626,115.623ZM91.684,98.756C94.321,95.425 95.624,91.018 95.026,87.455C94.637,85.14 93.53,82.843 91.922,81.016C90.161,79.014 87.043,77.329 87.05,78.383C87.052,78.565 87.666,79.428 88.415,80.301C90.753,83.026 92.075,86.466 92.075,89.827C92.075,92.224 91.318,95.735 90.348,97.833C89.278,100.151 89.257,100.277 89.954,100.277C90.278,100.277 90.943,99.692 91.684,98.756ZM78.849,81.355C79.11,81.042 79.117,80.63 78.882,79.459C77.904,74.591 79.241,70.55 83.145,66.569C85.488,64.181 85.713,63.611 84.204,63.887C81.541,64.374 78.018,67.535 76.39,70.898C75.451,72.838 75.29,73.436 75.19,75.338C75.048,78.047 75.52,79.467 77.01,80.813C78.179,81.87 78.374,81.927 78.849,81.355L78.849,81.355Z" style="fill:rgb(10,41,68);fill-rule:nonzero;"/>
                    <path d="M29.629,97.962C29.662,97.595 29.718,96.909 29.749,96.177C30.092,88.039 32.357,82.633 37.506,77.456C40.519,74.428 43.491,72.594 48.349,70.852C48.502,70.62 48.757,70.221 48.909,69.915C50.569,66.569 53.651,63.144 57.219,60.73C60.995,58.176 64.09,57.187 69.1,56.977C70.062,56.937 70.747,56.908 71.25,56.866C71.413,56.853 71.593,56.829 71.711,56.811L71.724,56.797C74.764,53.454 80.11,50.864 85.346,50.27C93.077,49.393 100.132,52.783 102.706,58.26C103.342,59.613 103.755,59.899 103.972,64.586C104.256,70.727 104.238,85.502 104.241,124.982C104.246,192.135 104.243,189.03 102.686,194.472C101.721,197.841 99.298,202.658 97.112,205.544C91.712,212.671 84.432,217.152 75.847,218.649C73.654,219.031 66.256,219.175 63.898,218.88C61.755,218.611 57.33,217.555 55.158,216.793C49.704,214.878 45.125,211.932 41.192,207.812C37.591,204.041 35.056,199.404 34.182,195.099L34.084,194.615L33.125,194.15C30.233,192.748 26.627,189.801 24.389,186.989C19.33,180.631 17.298,172.148 18.854,163.732C18.882,163.577 18.911,163.397 18.93,163.27C18.825,163.118 18.639,162.853 18.453,162.605C14.741,157.655 13.119,152.501 13.11,145.391C13.101,138.408 15.05,132.098 18.669,127.2L19.254,126.407L18.938,124.478C18.323,120.733 18.499,115.937 19.361,112.583C20.789,107.026 24.787,101.342 29.629,97.962ZM64.161,216.78C66.396,217.06 73.406,216.926 75.483,216.564C83.536,215.159 90.36,210.951 95.425,204.266C97.474,201.561 99.747,197.047 100.651,193.89C102.195,188.493 102.13,191.57 102.125,124.982C102.12,59.289 102.177,62.109 100.791,59.16C98.548,54.388 92.321,51.609 85.585,52.373C80.865,52.908 76.03,55.208 73.29,58.221C72.649,58.926 72.521,58.953 69.189,59.092C64.643,59.282 61.831,60.166 58.405,62.483C55.147,64.687 52.32,67.801 50.805,70.856C50.35,71.773 49.776,72.594 49.529,72.68C44.749,74.347 41.892,76.049 39.007,78.949C34.247,83.734 32.181,88.743 31.864,96.266C31.756,98.821 31.689,99.124 31.153,99.483C26.564,102.562 22.751,107.895 21.411,113.109C20.612,116.219 20.457,120.664 21.026,124.135L21.487,126.947L20.371,128.458C17.005,133.015 15.219,138.893 15.227,145.389C15.235,151.971 16.709,156.752 20.146,161.335C21.176,162.708 21.188,162.75 20.935,164.116C19.493,171.915 21.358,179.78 26.046,185.671C28.097,188.249 31.396,190.96 34.049,192.245L35.95,193.167L36.257,194.678C37.06,198.635 39.413,202.884 42.723,206.351C46.422,210.226 50.73,212.995 55.859,214.796C57.922,215.52 62.125,216.524 64.161,216.78ZM53.909,187.435C49.4,188.343 44.809,186.063 42.341,181.691L41.489,180.181L40.115,180.181C38.325,180.181 35.886,179.536 34.413,178.672C32.218,177.386 30.198,175.154 31.229,175.154C31.379,175.154 32.234,175.463 33.13,175.84C34.874,176.574 37.862,176.945 39.522,176.633L40.481,176.453L40.481,174.398C40.481,173.183 40.701,171.505 41.019,170.291L41.556,168.239L40.421,166.976C38.637,164.992 37.72,162.926 37.711,160.867C37.703,159.057 37.978,158.527 38.468,159.412C40.53,163.136 42.442,165.142 45.149,166.421C47.682,167.618 49.964,167.93 52.972,167.492C56.263,167.012 56.458,167.014 56.562,167.527C56.687,168.143 55.011,169.231 52.955,169.869C51.124,170.438 47.605,170.577 46.083,170.14C45.245,169.9 45.189,169.929 44.825,170.801C43.79,173.277 44.165,177.422 45.673,180.194C47.118,182.848 50.704,185.519 53.644,186.13C54.678,186.345 54.861,187.243 53.909,187.435ZM43.62,168.711L43.82,168.502L44.138,168.284C43.978,168.207 43.82,168.128 43.664,168.046C43.684,168.266 43.67,168.49 43.62,168.711ZM42.732,178.468C42.621,178.065 42.526,177.655 42.446,177.24C42.313,177.573 42.097,177.865 41.822,178.091C42.153,178.144 42.465,178.274 42.732,178.468ZM89.09,135.301C86.225,136.944 85.886,136.292 88.307,133.795C95.046,126.844 94.119,116.401 86.188,109.922C83.602,107.809 84.513,107.247 87.831,108.907C94.37,112.178 97.577,120.293 95.122,127.353C93.944,130.742 91.559,133.885 89.09,135.301ZM83.676,193.565C82.392,194.215 81.773,194.351 79.736,194.427C78.127,194.487 77.258,194.417 77.134,194.217C76.84,193.741 77.447,193.226 78.52,193.044C81.29,192.574 85.286,190.092 87.14,187.691C88.373,186.094 88.9,185.896 88.9,187.028C88.9,189.038 86.376,192.197 83.676,193.565ZM36.626,115.623C36.148,117.538 35.992,117.807 35.527,117.52C35.022,117.208 34.829,114.537 35.171,112.575C35.874,108.539 38.223,105.036 42.023,102.354L43.169,101.546L42.638,100.978C41.84,100.121 40.794,97.883 40.455,96.303C39.925,93.83 40.627,90.574 42.057,88.878C43.053,87.696 43.475,88.029 43.09,89.694C42.382,92.759 43.435,96.329 45.733,98.657C47.43,100.375 48.551,100.981 51.197,101.609C52.683,101.962 53.049,102.148 53.049,102.55C53.049,102.979 52.66,103.118 50.361,103.511C47.121,104.065 45.282,104.723 43.221,106.066C39.958,108.191 37.646,111.542 36.626,115.623ZM44.885,102.785C45.441,102.555 46.024,102.351 46.656,102.167C46.172,101.869 45.714,101.523 45.239,101.106C45.284,101.32 45.297,101.541 45.274,101.763C45.236,102.136 45.1,102.487 44.885,102.785ZM89.856,176.418C89.761,176.408 89.665,176.396 89.569,176.384C89.571,176.4 89.572,176.415 89.574,176.43C88.013,176.485 86.161,176.368 85.173,176.095C83.465,175.624 80.893,174.202 79.448,172.931C77.105,170.868 75.223,167.4 74.494,163.803L74.204,162.373L72.15,161.888C68.299,160.98 66.296,159.816 60.631,155.196C59.271,154.087 57.663,152.928 57.059,152.622C55.032,151.595 55.19,150.946 57.416,151.148C59.276,151.317 61.848,152.559 65.048,154.833C67.843,156.819 69.979,157.844 72.387,158.354C74.647,158.832 75.759,158.834 78.407,158.362C83.6,157.436 88.005,153.847 89.274,149.508C89.505,148.717 89.694,147.731 89.694,147.317C89.694,146.472 90.393,146.021 90.794,146.607C90.933,146.81 90.996,148.085 90.935,149.441C90.835,151.663 90.724,152.104 89.806,153.912C87.903,157.66 84.464,160.419 80.103,161.695C77.729,162.39 77.696,162.467 78.604,165.174C79.318,167.305 79.955,168.33 81.727,170.201C84.22,172.834 87.826,174.385 91.457,174.388C92.804,174.389 93.392,174.493 93.49,174.747C93.681,175.246 92.928,175.843 91.678,176.185C91.242,176.304 90.591,176.381 89.856,176.418ZM76.23,161.761L76.653,161.091L77.138,160.704C76.599,160.774 76.116,160.816 75.656,160.832C75.921,161.083 76.122,161.401 76.23,161.761ZM78.449,204.799C78.449,205.095 78.02,205.195 76.597,205.232C73.064,205.323 69.706,203.86 66.698,200.92L64.737,199.003L62.926,199.915C59.335,201.723 55.872,202.021 52.11,200.844C50.164,200.234 47.545,198.542 47.403,197.8C47.297,197.253 47.361,197.257 50.668,198.008C54.172,198.803 57.58,198.43 60.918,196.885C63.581,195.653 63.542,195.716 62.964,193.543C61.993,189.888 62.404,185.915 64.142,182.152C65.453,179.315 68.06,175.948 68.946,175.948C69.272,175.948 68.943,176.948 68.014,178.784C66.308,182.155 65.83,183.908 65.688,187.325C65.497,191.927 66.397,195.026 68.888,198.336C70.792,200.865 73.401,202.676 76.857,203.866C77.823,204.199 78.449,204.566 78.449,204.799ZM64.809,196.888C65.056,196.896 65.3,196.948 65.529,197.04C65.396,196.794 65.27,196.547 65.151,196.299C65.097,196.431 65.033,196.554 64.962,196.672C64.918,196.743 64.867,196.815 64.809,196.888ZM91.684,98.756C90.943,99.692 90.278,100.277 89.954,100.277C89.257,100.277 89.278,100.151 90.348,97.833C91.318,95.735 92.075,92.224 92.075,89.827C92.075,86.466 90.753,83.026 88.415,80.301C87.666,79.428 87.052,78.565 87.05,78.383C87.043,77.329 90.161,79.014 91.922,81.016C93.53,82.843 94.637,85.14 95.026,87.455C95.624,91.018 94.321,95.425 91.684,98.756ZM75.935,126.437C75.935,126.947 74.78,126.767 73.275,126.022C68.755,123.783 65.555,117.404 66.003,111.522C66.091,110.358 66.398,108.512 66.684,107.421C67.472,104.415 67.611,102.031 67.111,100.083C65.916,95.421 63.341,93.113 58.349,92.226C56.786,91.949 56.74,91.916 56.1,90.623C55.525,89.464 55.448,88.967 55.462,86.522C55.482,83.184 55.985,81.104 57.458,78.268C58.948,75.399 61.87,72.63 62.618,73.378C62.701,73.461 62.208,74.276 61.522,75.189C59.983,77.237 59.486,78.201 58.75,80.566C58.125,82.578 57.763,86.396 58.051,87.935C58.222,88.848 58.288,88.9 59.255,88.9C61.784,88.9 65.286,90.62 67.213,92.81C68.255,93.993 70.379,97.87 70.379,98.588C70.379,99.178 70.744,99.018 71.716,98.002C72.218,97.478 73.284,96.541 74.085,95.919C75.762,94.619 80.72,91.81 81.339,91.81C82.388,91.81 81.59,92.969 78.669,95.686C72.608,101.324 70.035,105.966 69.672,111.919C69.398,116.416 71.079,120.991 74.237,124.338C75.171,125.328 75.935,126.273 75.935,126.437ZM69.39,100.706C69.537,101.732 69.559,102.856 69.443,104.093C69.934,103.033 70.526,101.984 71.231,100.933L70.742,101.039L70.274,101.029L69.741,100.896L69.39,100.706ZM72.421,98.058C72.472,98.285 72.496,98.466 72.496,98.588C72.496,98.387 72.468,98.211 72.421,98.058ZM78.849,81.355C78.374,81.927 78.179,81.87 77.01,80.813C75.52,79.467 75.048,78.047 75.19,75.338C75.29,73.436 75.451,72.838 76.39,70.898C78.018,67.535 81.541,64.374 84.204,63.887C85.713,63.611 85.488,64.181 83.145,66.569C79.241,70.55 77.904,74.591 78.882,79.459C79.117,80.63 79.11,81.042 78.849,81.355ZM78.581,145.365C78.581,146.311 77.91,145.911 75.613,143.597C70.743,138.691 65.747,136.276 60.447,136.265C56.01,136.255 51.965,138.001 48.588,141.381C47.403,142.566 46.118,143.953 45.732,144.462C45.103,145.292 45.009,145.337 44.83,144.889C44.524,144.126 45.473,141.66 46.89,139.536C48.102,137.718 49.27,136.49 50.923,135.296L51.708,134.728L50.219,133.262C49.24,132.299 48.381,131.092 47.714,129.743C46.718,127.729 46.699,127.633 46.711,124.765C46.72,122.342 46.821,121.625 47.298,120.581C48.42,118.125 51.982,115.102 53.761,115.096C54.938,115.092 54.844,115.509 53.342,116.943C49.377,120.726 48.902,125.939 52.192,129.538C54.119,131.648 55.544,132.231 59.876,132.688C61.864,132.897 64.237,133.259 65.149,133.491C69.008,134.475 73.478,137.295 75.731,140.167C76.966,141.741 78.581,144.687 78.581,145.365ZM53.706,135.427C54.801,134.988 55.929,134.661 57.088,134.448C55.322,134.139 54.097,133.724 53.044,133.073L53.193,133.22C53.637,133.657 53.866,134.267 53.819,134.889C53.805,135.074 53.767,135.255 53.706,135.427ZM27.153,154.309C26.521,156.779 25.665,156.023 25.665,152.995C25.665,150.628 26.2,148.887 27.5,147.032L28.551,145.532L27.889,144.087C25.295,138.42 27.658,131.486 33.166,128.604C34.698,127.802 36.073,127.561 36.37,128.042C36.455,128.179 36.331,128.447 36.094,128.638C33.068,131.076 31.38,133.529 30.691,136.487C29.816,140.244 31.803,144.961 35.194,147.179C36.578,148.083 36.875,148.804 35.963,149.042C35.66,149.122 34.325,149 32.996,148.773L30.579,148.359L29.684,149.387C28.562,150.678 27.607,152.533 27.153,154.309ZM30.545,146.243C30.674,146.241 30.806,146.25 30.936,146.273L31.223,146.322C31.029,146.072 30.844,145.815 30.667,145.55C30.665,145.786 30.624,146.02 30.545,146.243Z" style="fill:white;"/>
                </g>
            </g>
        </g>
    </g>
</svg>
